<svg xmlns="http://www.w3.org/2000/svg" xmlns:svgjs="http://svgjs.com/svgjs" xmlns:xlink="http://www.w3.org/1999/xlink" id="freepik_stories-portfolio" class="animated" version="1.1" viewBox="0 0 500 500"><style>@keyframes slideUp{0%{opacity:0;transform:translateY(30px)}}@keyframes floating{0%{opacity:1;transform:translateY(0)}50%{transform:translateY(-10px)}}svg#freepik_stories-portfolio:not(.animated) .animable{opacity:0}svg#freepik_stories-portfolio.animated #freepik--background-simple--inject-36{animation:1s 1 forwards cubic-bezier(.36,-.01,.5,1.38) slideUp;animation-delay:0s}svg#freepik_stories-portfolio.animated #freepik--Portfolio--inject-36{animation:1s 1 forwards cubic-bezier(.36,-.01,.5,1.38) slideUp,3s Infinite linear floating;animation-delay:0s,1s}svg#freepik_stories-portfolio.animated #freepik--Character--inject-36{animation:1s 1 forwards cubic-bezier(.36,-.01,.5,1.38) slideUp;animation-delay:0s}</style><g style="transform-origin:271.719px 226.13px" id="freepik--background-simple--inject-36" class="animable"><path id="elkglon0oza39" d="M226.9,77.24C111,97.87,78.84,195.55,99.28,276.23c20.66,81.56,147.22,120.62,223.15,100.29,79-21.15,144.8-122.3,123.38-206.25C423.15,81.51,342.77,56.62,226.9,77.24Z" class="animable" style="fill:#407bff;transform-origin:271.719px 226.13px"/><g id="el91uep8n3pgq"><path style="fill:#fff;opacity:.9;transform-origin:271.719px 226.13px" d="M226.9,77.24C111,97.87,78.84,195.55,99.28,276.23c20.66,81.56,147.22,120.62,223.15,100.29,79-21.15,144.8-122.3,123.38-206.25C423.15,81.51,342.77,56.62,226.9,77.24Z" class="animable"/></g></g><g style="transform-origin:250px 416.24px" id="freepik--Shadow--inject-36" class="animable"><ellipse id="el3ner1i3jcoy" cx="250" cy="416.24" class="animable" rx="193.89" ry="11.32" style="fill:#f5f5f5;transform-origin:250px 416.24px"/></g><g style="transform-origin:250px 256.515px" id="freepik--Portfolio--inject-36" class="animable animator-active"><path id="elfq6bmybgiw5" d="M429.39,96.79H70.62A9.65,9.65,0,0,0,61,106.4V345.86a9.64,9.64,0,0,0,9.62,9.61H429.39a9.64,9.64,0,0,0,9.61-9.61V106.4A9.65,9.65,0,0,0,429.39,96.79Z" class="animable" style="fill:#407bff;transform-origin:250px 226.13px"/><path id="elc1zgzvgzg6s" d="M61,121.65V345.86a9.64,9.64,0,0,0,9.62,9.61H429.39a9.64,9.64,0,0,0,9.61-9.61V121.65Z" class="animable" style="fill:#407bff;transform-origin:250px 238.56px"/><g id="elyyuf8pcv4fs"><path style="fill:#fff;opacity:.6;transform-origin:250px 238.56px" d="M61,121.65V345.86a9.64,9.64,0,0,0,9.62,9.61H429.39a9.64,9.64,0,0,0,9.61-9.61V121.65Z" class="animable"/></g><path id="elxne7dqogx8d" d="M62.78,121.65V337.23a5.45,5.45,0,0,0,5.45,5.46H431.77a5.45,5.45,0,0,0,5.45-5.46V121.65Z" class="animable" style="fill:#fff;transform-origin:250px 232.17px"/><rect id="elfx8kecjfmrq" width="104.71" height="151.9" x="78.66" y="145.97" class="animable" style="fill:#407bff;transform-origin:131.015px 221.92px"/><rect id="eldf59s2j89ts" width="104.71" height="151.9" x="76.95" y="145.97" class="animable" style="fill:#407bff;transform-origin:129.305px 221.92px"/><g id="el403ho4216ln"><rect style="fill:#fff;opacity:.2;transform-origin:129.305px 221.92px" width="104.71" height="151.9" x="76.95" y="145.97" class="animable"/></g><g id="elb9rixkrhf0g"><path style="fill:#f5f5f5;opacity:.61;transform-origin:107.05px 109.33px" d="M132.44,112.33H81.66a3,3,0,0,1-3-3h0a3,3,0,0,1,3-3h50.78a3,3,0,0,1,3,3h0A3,3,0,0,1,132.44,112.33Z" class="animable"/></g><g id="el8e7u955uphe"><path style="fill:#f5f5f5;opacity:.61;transform-origin:147.475px 109.33px" d="M145.78,112.33h3.39a3,3,0,0,0,3-3h0a3,3,0,0,0-3-3h-3.39a3,3,0,0,0-3,3h0A3,3,0,0,0,145.78,112.33Z" class="animable"/></g><path id="eleaglm2ytwu9" d="M160.66,285.91c-4.15-6-1.95-12,.17-17.74s4.15-11.24.3-16.83-9.67-5.65-15.83-5.71-12.5-.13-16.64-6.15-2-12,.17-17.74,4.15-11.23.29-16.82-9.66-5.65-15.82-5.72-12.49-.13-16.64-6.14-2-12,.18-17.74,4.14-11.23.29-16.82l.82-.57c4.15,6,2,12-.18,17.74s-4.14,11.23-.29,16.82,9.67,5.65,15.83,5.71,12.49.13,16.64,6.15,2,12-.18,17.74-4.14,11.23-.29,16.82,9.67,5.65,15.83,5.72,12.49.13,16.64,6.14,2,12-.18,17.74-4.14,11.24-.29,16.83Z" class="animable" style="fill:#fff;transform-origin:129.305px 221.92px"/><rect id="elfhiodmoq2tu" width="104.71" height="151.9" x="318.34" y="145.97" class="animable" style="fill:#407bff;transform-origin:370.695px 221.92px"/><rect id="elhjccqttnnm8" width="104.7" height="151.9" x="316.64" y="145.97" class="animable" style="fill:#407bff;transform-origin:368.99px 221.92px"/><g id="elrhw7x5mblz"><rect style="fill:#fff;opacity:.6;transform-origin:368.99px 221.92px" width="104.7" height="151.9" x="316.64" y="145.97" class="animable"/></g><g id="eljfb88ua9n2"><path style="fill:#407bff;opacity:.65;transform-origin:348.66px 187.328px" d="M380.66,176.3a52.42,52.42,0,0,1-64,51.06V146H371A52.15,52.15,0,0,1,380.66,176.3Z" class="animable"/></g><path id="elmbgr0kuy8wk" d="M421.34,205v70.64a35.32,35.32,0,1,1,0-70.64Z" class="animable" style="fill:#fff;transform-origin:403.68px 240.32px"/><g id="el2bzf5xlo8c"><path style="fill:#407bff;opacity:.78;transform-origin:356.76px 283.758px" d="M391.36,297.87h-69.2a35.32,35.32,0,0,1,69.2,0Z" class="animable"/></g><rect id="elhs13c6f17qq" width="104.71" height="124" x="198.5" y="218.69" class="animable" style="fill:#407bff;transform-origin:250.855px 280.69px"/><rect id="elt0wqhyv6t0c" width="104.71" height="124" x="196.79" y="218.69" class="animable" style="fill:#407bff;transform-origin:249.145px 280.69px"/><g id="eln1dlqnys1i"><rect style="fill:#fff;opacity:.5;transform-origin:249.145px 280.69px" width="104.71" height="124" x="196.79" y="218.69" class="animable"/></g><path id="elwis59umrtb8" d="M249.15,232.17h0a22.57,22.57,0,0,1,22.57,22.57v87.95a0,0,0,0,1,0,0H226.58a0,0,0,0,1,0,0V254.74A22.57,22.57,0,0,1,249.15,232.17Z" class="animable" style="fill:#fff;transform-origin:249.15px 287.43px"/><rect id="el8ueopz8gxho" width="39.05" height="91.14" x="183.91" y="264.33" class="animable" style="fill:#d5e1fd;transform-origin:203.435px 309.9px"/><g id="elxh598mkx8o"><rect style="fill:#407bff;transform-origin:110.15px 312.38px;transform:rotate(-85.97deg)" width="16.8" height="1" x="101.75" y="311.88" class="animable"/></g><g id="el11xz1580fnn"><rect style="fill:#407bff;transform-origin:108.71px 332.67px;transform:rotate(-85.97deg)" width="8.12" height="1" x="104.65" y="332.17" class="animable"/></g><polygon id="elyxr4pgwj58m" points="212.23 416.24 107.52 416.24 118.25 264.33 222.96 264.33 212.23 416.24" class="animable" style="fill:#407bff;transform-origin:165.24px 340.285px"/><g id="el0c0d5iwnro7f"><polygon style="opacity:.5;transform-origin:165.24px 340.285px" points="212.23 416.24 107.52 416.24 118.25 264.33 222.96 264.33 212.23 416.24" class="animable"/></g><polygon id="el0jwhoqn11v55" points="210.53 416.24 105.82 416.24 116.55 264.33 221.25 264.33 210.53 416.24" class="animable" style="fill:#407bff;transform-origin:163.535px 340.285px"/><path id="elwm1uxa90dao" d="M150.34,343.5a27.31,27.31,0,0,1-27.61-30c1.3-16.49,15.78-29.9,32.27-29.9a27.31,27.31,0,0,1,27.61,30C181.31,330.08,166.83,343.5,150.34,343.5ZM155,284.61c-16,0-30,13-31.28,29a26.31,26.31,0,0,0,26.62,28.91c16,0,30-13,31.27-29A26.3,26.3,0,0,0,155,284.61Z" class="animable" style="fill:#fff;transform-origin:152.67px 313.55px"/><g id="elej30ibkyec"><ellipse style="fill:#fff;transform-origin:181.71px 367.46px;transform:rotate(-43.87deg)" cx="181.71" cy="367.46" class="animable" rx="18.56" ry="17.15"/></g><rect id="elw1zwb34obsn" width="104.71" height="80.93" x="196.79" y="121.65" class="animable" style="fill:#407bff;transform-origin:249.145px 162.115px"/><g id="elipgd0bg1dd"><rect style="opacity:.5;transform-origin:250.855px 162.115px" width="104.71" height="80.93" x="198.5" y="121.65" class="animable"/></g><rect id="eletn28zt4p7d" width="44.5" height="68.18" x="219.33" y="121.65" class="animable" style="fill:#407bff;transform-origin:241.58px 155.74px"/><path id="elmnx747km4q" d="M204.67,121.65a22.67,22.67,0,1,0,45.33,0Z" class="animable" style="fill:#f0f0f0;transform-origin:227.335px 133.223px"/><path id="el1w9kc8n0mt9" d="M258.44,121.65a17.62,17.62,0,0,0,35.23,0Z" class="animable" style="fill:#f0f0f0;transform-origin:276.055px 130.25px"/><g id="el82u78s9enq"><rect style="fill:#fff;opacity:.5;transform-origin:241.58px 155.74px" width="44.5" height="68.18" x="219.33" y="121.65" class="animable"/></g></g><g style="transform-origin:247.046px 290.259px" id="freepik--Character--inject-36" class="animable"><path id="elzsawvrhz3d" d="M244.87,186.66c.12.58-.09,1.11-.47,1.19s-.79-.32-.91-.9.09-1.12.47-1.2S244.75,186.08,244.87,186.66Z" class="animable" style="fill:#263238;transform-origin:244.18px 186.8px"/><path id="el4qe23neogyg" d="M244.83,187.76a21.11,21.11,0,0,1-1.74,5.54,3.39,3.39,0,0,0,2.88-.06Z" class="animable" style="fill:#de5753;transform-origin:244.53px 190.676px"/><path id="elknefb5w8w6q" d="M243.34,183.11a.37.37,0,0,1-.3-.16.35.35,0,0,1,.11-.48,3.41,3.41,0,0,1,3.17-.11.34.34,0,0,1,.18.46.35.35,0,0,1-.46.17,2.82,2.82,0,0,0-2.52.06A.3.3,0,0,1,243.34,183.11Z" class="animable" style="fill:#263238;transform-origin:244.76px 182.566px"/><path id="el09w0lf4mqz17" d="M264.92,188.52c-1.05,5.37-1.57,15.22,2.19,18.8,0,0-1.47,5.46-11.46,5.46-11,0-5.24-5.46-5.24-5.46,6-1.43,5.83-5.87,4.79-10Z" class="animable" style="fill:#e4897b;transform-origin:258.006px 200.65px"/><path id="elzn8cmf57npo" d="M264,181.4c1.05,7.21,2,11.38-.81,15.79-4.27,6.63-13.74,5.2-16.92-1.56-2.87-6.08-4.1-16.86,2.28-21.15A10,10,0,0,1,264,181.4Z" class="animable" style="fill:#e4897b;transform-origin:254.486px 187.146px"/><path id="elwwck7od7bv9" d="M271.24,177.08c3.83-7-4.95-10.2-8.2-9.5a7.8,7.8,0,0,0-7.83-4.16c-3.93.34-5.69,2.31-6.63,4.83-2.2-1.17-8.76.6-7.83,5.92.83,4.75,6,6.2,8.63,6.47,2,8.09,7.29,18.19,14.37,14.58,2.32-1.19,4.33-4.17,5.65-8C275,185.56,273.79,179.26,271.24,177.08Z" class="animable" style="fill:#263238;transform-origin:257.021px 179.671px"/><path id="eld6wkn09sa1f" d="M254.78,185.47a8.32,8.32,0,0,1-1.81,5c-1.51,1.84-3.23.83-3.63-1.3-.36-1.92,0-5.19,1.9-6.26S254.79,183.29,254.78,185.47Z" class="animable" style="fill:#e4897b;transform-origin:251.998px 186.99px"/><path id="el7tvzjp9j8bm" d="M268.63,208.86c2.12,1.06,1.93-2.3.07-5.05-1.17-1.72-13.18-.17-16.85,1.24a3.84,3.84,0,0,0-2.49,4.87Z" class="animable" style="fill:#407bff;transform-origin:259.661px 206.486px"/><g id="eltv7mte3fwk"><path style="opacity:.8;transform-origin:259.661px 206.486px" d="M268.63,208.86c2.12,1.06,1.93-2.3.07-5.05-1.17-1.72-13.18-.17-16.85,1.24a3.84,3.84,0,0,0-2.49,4.87Z" class="animable"/></g><path id="elez37ic99odc" d="M283.51,222.35c-.65,1.44-1.26,2.69-2,4s-1.36,2.56-2.08,3.82c-1.45,2.52-3,5-4.68,7.39a76.67,76.67,0,0,1-5.49,7,46,46,0,0,1-6.78,6.39,65.65,65.65,0,0,1-7.62,4.75c-2.53,1.37-5.07,2.63-7.63,3.84-5.12,2.41-10.29,4.56-15.61,6.49l-2.39-5,14-8.79c2.31-1.48,4.59-3,6.82-4.47a70,70,0,0,0,6.16-4.6,41.23,41.23,0,0,0,4.93-5.42q2.34-3,4.46-6.35c1.4-2.22,2.76-4.49,4.06-6.8.66-1.16,1.3-2.32,1.92-3.49l1.77-3.46Z" class="animable" style="fill:#e4897b;transform-origin:256.37px 241.84px"/><path id="el9sg4zaa8lxr" d="M285.75,213.41c3,6.41-6.59,26.65-6.59,26.65l-16.38-7.6a115.93,115.93,0,0,1,6.66-16.74C273.72,207.23,282.71,206.86,285.75,213.41Z" class="animable" style="fill:#407bff;transform-origin:274.556px 224.47px"/><g id="el5qxsak6r7ep"><path style="opacity:.6;transform-origin:274.556px 224.47px" d="M285.75,213.41c3,6.41-6.59,26.65-6.59,26.65l-16.38-7.6a115.93,115.93,0,0,1,6.66-16.74C273.72,207.23,282.71,206.86,285.75,213.41Z" class="animable"/></g><path id="elmveoym1jq5" d="M293.16,410a2.35,2.35,0,0,1-1.76-.48.71.71,0,0,1,0-.83.83.83,0,0,1,.55-.41c1.07-.24,3.1,1.14,3.19,1.2a.2.2,0,0,1,.07.18.17.17,0,0,1-.13.13A9.34,9.34,0,0,1,293.16,410Zm-.92-1.4-.21,0a.47.47,0,0,0-.32.24c-.16.28-.07.4,0,.44.32.42,1.82.42,2.91.24A5.69,5.69,0,0,0,292.24,408.62Z" class="animable" style="fill:#407bff;transform-origin:293.239px 409.136px"/><path id="el7659ompjt9k" d="M295,409.82l-.09,0c-.76-.42-2.23-2-2.07-2.84a.57.57,0,0,1,.55-.46,1,1,0,0,1,.74.22c.86.7,1,2.82,1,2.91a.16.16,0,0,1-.08.16Zm-1.49-3h-.07c-.23,0-.25.14-.26.18-.09.48.85,1.7,1.6,2.27A4.13,4.13,0,0,0,294,407,.6.6,0,0,0,293.55,406.84Z" class="animable" style="fill:#407bff;transform-origin:293.98px 408.167px"/><polygon id="el5uhcm1x17ap" points="303.51 409.64 296.17 409.64 289.4 392.63 296.74 392.63 303.51 409.64" class="animable" style="fill:#e4897b;transform-origin:296.455px 401.135px"/><path id="el1pqs2k27nh4" d="M295.59,408.79h8.25a.63.63,0,0,1,.62.51l1.46,6.53a1.08,1.08,0,0,1-1.08,1.3c-2.88-.05-4.28-.22-7.91-.22-2.23,0-6.83.24-9.92.24s-3.48-3-2.22-3.33c5.66-1.24,7.79-2.95,9.6-4.57A1.78,1.78,0,0,1,295.59,408.79Z" class="animable" style="fill:#263238;transform-origin:295.03px 412.97px"/><polygon id="el1v2cgnseswr" points="296.75 392.64 289.4 392.64 294.27 404.86 301.07 403.48 296.75 392.64" class="animable" style="fill:#ce6f64;transform-origin:295.235px 398.75px"/><path id="ell75xghm17j" d="M255.88,272.86s-1.47,29.76-6.91,56c-1.72,8.31-.59,17.21,4.28,24.16,14.31,20.41,37,47.59,37,47.59l11.89-1.33S282.85,363.56,273,345.83c-2.24-4-4.22-7.66-2.53-12,16.33-41.45,7.5-61,7.5-61Z" class="animable" style="fill:#407bff;transform-origin:275.177px 336.72px"/><g id="elkuvcdq7a0c"><path style="opacity:.5;transform-origin:275.177px 336.72px" d="M255.88,272.86s-1.47,29.76-6.91,56c-1.72,8.31-.59,17.21,4.28,24.16,14.31,20.41,37,47.59,37,47.59l11.89-1.33S282.85,363.56,273,345.83c-2.24-4-4.22-7.66-2.53-12,16.33-41.45,7.5-61,7.5-61Z" class="animable"/></g><path id="elitx5n3wacw" d="M230.93,260.23l-5.38-.84,1.94,9.18s4.12-.51,5.87-3.61Z" class="animable" style="fill:#e4897b;transform-origin:229.455px 263.98px"/><polygon id="el7p8thk20cxf" points="219.13 260.28 221.08 267.79 227.49 268.57 225.55 259.39 219.13 260.28" class="animable" style="fill:#e4897b;transform-origin:223.31px 263.98px"/><path id="ellvq09ndocdp" d="M245.65,219.62c-2.31,4.57-4.73,9-7.25,13.49s-5.13,8.84-7.89,13.19l-1,1.63-.72,1-.75,1a29.77,29.77,0,0,1-3.13,3.2,54,54,0,0,1-6.54,4.94,88.66,88.66,0,0,1-13.9,7.39l-2.72-4.8c3.9-3,7.85-6.16,11.46-9.37a65.29,65.29,0,0,0,5-4.91,24.59,24.59,0,0,0,2-2.46l.36-.58.3-.55.88-1.65c4.68-8.84,9.28-17.87,14.09-26.69Z" class="animable" style="fill:#e4897b;transform-origin:223.7px 239.955px"/><g id="elfvku9l720oo"><path style="opacity:.3;transform-origin:271.76px 227.39px" d="M277,214.72l3.7,21.95c-.88,2.07-1.5,3.39-1.5,3.39l-16.38-7.6S270.18,219.67,277,214.72Z" class="animable"/></g><path id="eljmj7fougqkk" d="M235.94,222.37l6.07,15-6.07,8.83A158,158,0,0,1,235.94,222.37Z" class="animable" style="fill:#1f2d43;transform-origin:238.75px 234.285px"/><path id="elhfrg4go5519" d="M203.49,260.4l-7.69-.94.3,8.9s6.05.53,9.31-3.44Z" class="animable" style="fill:#e4897b;transform-origin:200.605px 263.922px"/><polygon id="elob0dhym9ccm" points="188.15 261.57 191.21 268.79 196.1 268.36 195.8 259.46 188.15 261.57" class="animable" style="fill:#e4897b;transform-origin:192.125px 264.125px"/><g id="ell9misjktvef"><path style="opacity:.1;transform-origin:257.132px 306.435px" d="M253.67,298.58,265.05,285c.43,6.09-3.25,28.87-15.87,42.87C251.19,318,252.64,307.59,253.67,298.58Z" class="animable"/></g><polygon id="elb01mloy3zww" points="244.2 409.64 236.85 409.64 234.71 392.63 242.05 392.63 244.2 409.64" class="animable" style="fill:#e4897b;transform-origin:239.455px 401.135px"/><path id="elv2zz9y8xokt" d="M233.64,410c-.94,0-1.85-.13-2.15-.55a.66.66,0,0,1,0-.76.86.86,0,0,1,.55-.41c1.23-.33,3.79,1.13,3.9,1.19a.19.19,0,0,1,.09.18.17.17,0,0,1-.14.14A12.3,12.3,0,0,1,233.64,410Zm-1.16-1.42a1.27,1.27,0,0,0-.34,0,.51.51,0,0,0-.34.24c-.12.22-.07.32,0,.38.33.46,2.19.49,3.56.3A7.82,7.82,0,0,0,232.48,408.6Z" class="animable" style="fill:#407bff;transform-origin:233.7px 409.116px"/><path id="el7g4wvgep0fx" d="M235.87,409.82l-.08,0c-.88-.39-2.64-2-2.5-2.81,0-.2.16-.44.64-.49a1.25,1.25,0,0,1,1,.3c.93.76,1.13,2.74,1.14,2.83a.2.2,0,0,1-.07.16A.19.19,0,0,1,235.87,409.82Zm-1.8-3H234c-.31,0-.33.16-.34.2-.08.5,1.11,1.75,2,2.29a4.12,4.12,0,0,0-1-2.26A.91.91,0,0,0,234.07,406.84Z" class="animable" style="fill:#407bff;transform-origin:234.676px 408.167px"/><path id="elf7hikx9mzsk" d="M236.65,408.79h8a.63.63,0,0,1,.62.51l1.45,6.53a1.06,1.06,0,0,1-1.05,1.3c-2.9-.05-7.08-.22-10.72-.22-4.25,0-7.92.24-12.91.24-3,0-3.85-3-2.59-3.33,5.75-1.26,10.44-1.39,15.41-4.45A3.33,3.33,0,0,1,236.65,408.79Z" class="animable" style="fill:#263238;transform-origin:232.817px 412.97px"/><polygon id="el6335qja144" points="242.05 392.64 234.7 392.64 236.28 405.03 243.49 403.92 242.05 392.64" class="animable" style="fill:#ce6f64;transform-origin:239.095px 398.835px"/><polygon id="el98hkt9hs7e4" points="286.9 398.8 289.23 403.62 303.56 399.94 302.42 395.47 286.9 398.8" class="animable" style="fill:#407bff;transform-origin:295.23px 399.545px"/><path id="elt787xtjwikd" d="M238.67,272.86s-6.15,20.56-16.31,47c-3.31,8.6-4.59,16.88-2.29,24.16,7.13,22.6,13.29,56.59,13.29,56.59l12.25-1.33s.47-34.67-3.87-52.54c-2.23-9.17-1.47-12.51.81-15.54,31.21-41.51,22.83-58.31,22.83-58.31Z" class="animable" style="fill:#407bff;transform-origin:242.654px 336.735px"/><g id="el95lnqzu1lzc"><path style="opacity:.5;transform-origin:242.654px 336.735px" d="M238.67,272.86s-6.15,20.56-16.31,47c-3.31,8.6-4.59,16.88-2.29,24.16,7.13,22.6,13.29,56.59,13.29,56.59l12.25-1.33s.47-34.67-3.87-52.54c-2.23-9.17-1.47-12.51.81-15.54,31.21-41.51,22.83-58.31,22.83-58.31Z" class="animable"/></g><polygon id="elneprgbdzbz" points="231.24 398.53 231.88 403.41 246.34 400.96 246.77 396.5 231.24 398.53" class="animable" style="fill:#407bff;transform-origin:239.005px 399.955px"/><path id="el1nz41w64uiz" d="M239.11,209.36s-7.82,8.84-.44,63.5H278c.27-6-3.52-35.45,2.3-63.88a102.56,102.56,0,0,0-13.15-1.66,145.27,145.27,0,0,0-16.7,0A74.93,74.93,0,0,0,239.11,209.36Z" class="animable" style="fill:#407bff;transform-origin:257.9px 239.97px"/><g id="elp8dhmczc5w"><path style="opacity:.6;transform-origin:257.9px 239.97px" d="M239.11,209.36s-7.82,8.84-.44,63.5H278c.27-6-3.52-35.45,2.3-63.88a102.56,102.56,0,0,0-13.15-1.66,145.27,145.27,0,0,0-16.7,0A74.93,74.93,0,0,0,239.11,209.36Z" class="animable"/></g><path id="elr5vivt8e8w" d="M248.67,214.21c2.42,6.6-7.3,26.62-7.3,26.62L223.77,232a89.92,89.92,0,0,1,8.62-17.13C237.65,207.13,246,207,248.67,214.21Z" class="animable" style="fill:#407bff;transform-origin:236.414px 224.88px"/><path id="elu7n0d0nqxr" d="M248.67,214.21c2.42,6.6-7.3,26.62-7.3,26.62L223.77,232a89.92,89.92,0,0,1,8.62-17.13C237.65,207.13,246,207,248.67,214.21Z" class="animable" style="fill:#407bff;transform-origin:236.414px 224.88px"/><g id="elvdtn1v2ltdm"><path style="opacity:.6;transform-origin:236.414px 224.88px" d="M248.67,214.21c2.42,6.6-7.3,26.62-7.3,26.62L223.77,232a89.92,89.92,0,0,1,8.62-17.13C237.65,207.13,246,207,248.67,214.21Z" class="animable"/></g></g><defs><filter id="active" height="200%"><feMorphology in="SourceAlpha" operator="dilate" radius="2" result="DILATED"/><feFlood flood-color="#32DFEC" flood-opacity="1" result="PINK"/><feComposite in="PINK" in2="DILATED" operator="in" result="OUTLINE"/><feMerge><feMergeNode in="OUTLINE"/><feMergeNode in="SourceGraphic"/></feMerge></filter><filter id="hover" height="200%"><feMorphology in="SourceAlpha" operator="dilate" radius="2" result="DILATED"/><feFlood flood-color="red" flood-opacity=".5" result="PINK"/><feComposite in="PINK" in2="DILATED" operator="in" result="OUTLINE"/><feMerge><feMergeNode in="OUTLINE"/><feMergeNode in="SourceGraphic"/></feMerge><feColorMatrix type="matrix" values="0 0 0 0 0 0 1 0 0 0 0 0 0 0 0 0 0 0 1 0"/></filter></defs></svg>